<?xml version="1.0" encoding="utf-8"?>
<!-- Generator: Adobe Illustrator 24.0.1, SVG Export Plug-In . SVG Version: 6.00 Build 0)  -->
<svg version="1.1" id="Layer_1" xmlns="http://www.w3.org/2000/svg" xmlns:xlink="http://www.w3.org/1999/xlink" x="0px" y="0px"
	 viewBox="0 0 112 112" style="enable-background:new 0 0 112 112;" xml:space="preserve">
<style type="text/css">
	.st0{fill:#FFFFFF;}
</style>
<g>
	<g>
		<path class="st0" d="M104.58,69.01L104.58,69.01c4.68-6.16,7.3-13.35,7.15-20.99C111.3,26.04,88.04,8.67,59.79,9.23
			C31.54,9.78,8.99,28.06,9.42,50.03c0.01,0.4,0.02,0.8,0.05,1.2l1.38-0.89c-0.01-0.12,7.46-3.97,7.46-4.09
			c0-15.99,23.18-31.35,41.48-31.35c16.49,0,44.73,9.46,44.73,33.2c0,7.17-4.12,14.36-8.57,20.14c-3.73,5.78,0.72,18.79,0.72,18.79
			l-14.63-7.79c-3.83,1.19-9.75,1.75-11.38,2.21c-1.96,4.58-5,7.15-5,7.15c5.15-0.36,9.13-1.24,13.73-2.69l25.92,11.14
			C105.31,97.06,96.53,79.33,104.58,69.01z M35.69,45.11C16.68,44.74,1.03,56.43,0.74,71.22c-0.1,5.14,1.67,9.98,4.82,14.12H5.55
			c5.42,6.94-0.49,18.87-0.49,18.87l17.45-7.5c3.76,1.19,7.85,1.88,12.13,1.96c19.01,0.37,34.66-11.31,34.95-26.11
			C69.88,57.78,54.7,45.48,35.69,45.11z"/>
	</g>
</g>
</svg>
