<?xml version="1.0" encoding="utf-8"?>
<!-- Generator: Adobe Illustrator 24.0.1, SVG Export Plug-In . SVG Version: 6.00 Build 0)  -->
<svg version="1.1" id="Layer_1" xmlns="http://www.w3.org/2000/svg" xmlns:xlink="http://www.w3.org/1999/xlink" x="0px" y="0px"
	 viewBox="0 0 85 95" style="enable-background:new 0 0 85 95;" xml:space="preserve">
<style type="text/css">
	.st0{fill:#FFFFFF;}
</style>
<path class="st0" d="M80.44,21.37l-34.7-20c-2.2-1.3-5-1.3-7.2,0l-34.6,20c-2.2,1.3-3.6,3.7-3.6,6.2v40c0,2.6,1.4,5,3.6,6.2l34.6,20
	c1.1,0.6,2.3,1,3.6,1s2.5-0.3,3.6-1l34.6-20c2.2-1.3,3.6-3.7,3.6-6.2v-40C84.04,25.07,82.64,22.67,80.44,21.37z M61.74,47.37
	c2.3,0,4.3,1.9,4.3,4.3s-1.9,4.3-4.3,4.3s-4.3-1.9-4.3-4.3S59.34,47.37,61.74,47.37z M42.04,23.07c2.3,0,4.3,1.9,4.3,4.3
	c0,2.3-1.9,4.3-4.3,4.3s-4.3-1.9-4.3-4.3C37.84,24.97,39.74,23.07,42.04,23.07z M34.44,37.07c0-2.1,1.7-3.7,3.7-3.7h7.8
	c2.1,0,3.7,1.6,3.7,3.7v3.4h-15.2V37.07z M22.54,47.37c2.3,0,4.3,1.9,4.3,4.3s-1.9,4.3-4.3,4.3c-2.3,0-4.3-1.9-4.3-4.3
	S20.24,47.37,22.54,47.37z M30.24,64.87h-15.3v-3.4c0-2.1,1.7-3.7,3.7-3.7h7.8c2.1,0,3.7,1.6,3.7,3.7v3.4H30.24z M49.74,56.77h-7.6
	h-7.6v-3.2h6v-8.5h3.2v8.5h6C49.74,53.57,49.74,56.77,49.74,56.77z M69.34,64.87h-15.2v-3.4c0-2.1,1.7-3.7,3.7-3.7h7.8
	c2.1,0,3.7,1.6,3.7,3.7V64.87z"/>
</svg>
