<?xml version="1.0" encoding="utf-8"?>
<!-- Generator: Adobe Illustrator 24.0.1, SVG Export Plug-In . SVG Version: 6.00 Build 0)  -->
<svg version="1.1" id="Layer_1" xmlns="http://www.w3.org/2000/svg" xmlns:xlink="http://www.w3.org/1999/xlink" x="0px" y="0px"
	 viewBox="0 0 214.33 246.37" style="enable-background:new 0 0 214.33 246.37;" xml:space="preserve">
<style type="text/css">
	.st0{fill:#FFFFFF;}
</style>
<g>
	<g>
		<path class="st0" d="M107.16,246.37c-1.22,0-2.44-0.28-3.56-0.84c-31.16-15.49-57.3-39.23-75.61-68.65
			C9.68,147.46,0,113.63,0,79.05V38.72c0-2.18,0.91-4.26,2.51-5.75c1.6-1.49,3.75-2.26,5.94-2.13l1.3,0.08
			c33.42,2.03,66.19-8.33,92.28-29.17c2.91-2.32,7.06-2.33,9.97-0.01l0.23,0.18c26.04,20.73,58.74,31.04,92.06,29.02l1.6-0.1
			c2.18-0.13,4.34,0.64,5.94,2.13c1.6,1.49,2.51,3.57,2.51,5.75v40.32c0,34.58-9.68,68.41-27.99,97.83s-44.46,53.16-75.61,68.65
			C109.61,246.09,108.38,246.37,107.16,246.37z M15.92,46.95v32.1c0,63.58,34.85,120.9,91.25,150.55
			c56.39-29.65,91.25-86.96,91.25-150.55V46.96c-32.9,0.52-64.92-9.67-91.4-29.09C81.17,36.81,50.06,46.96,18,46.96
			C17.31,46.96,16.61,46.96,15.92,46.95z"/>
		<g>
			<path class="st0" d="M141.65,180.01H72.68c-10.24,0-18.57-8.27-18.57-18.43v-50.48c0-10.16,8.33-18.43,18.57-18.43h68.97
				c10.24,0,18.57,8.27,18.57,18.43v50.48C160.21,171.74,151.88,180.01,141.65,180.01z M72.68,108.48c-1.46,0-2.65,1.18-2.65,2.63
				v50.48c0,1.45,1.19,2.63,2.65,2.63h68.97c1.46,0,2.65-1.18,2.65-2.63v-50.48c0-1.45-1.19-2.63-2.65-2.63L72.68,108.48
				L72.68,108.48z"/>
			<path class="st0" d="M144.3,100.58h-15.92V79.2c0-11.61-9.52-21.06-21.23-21.06S85.94,67.58,85.94,79.2v21.38H70.02V79.2
				c0-20.32,16.66-36.86,37.14-36.86S144.3,58.87,144.3,79.2V100.58z"/>
			<rect x="99.08" y="125.82" class="st0" width="15.92" height="22.46"/>
		</g>
	</g>
</g>
</svg>
