<?xml version="1.0" encoding="utf-8"?>
<!-- Generator: Adobe Illustrator 24.0.1, SVG Export Plug-In . SVG Version: 6.00 Build 0)  -->
<svg version="1.1" id="Layer_1" xmlns="http://www.w3.org/2000/svg" xmlns:xlink="http://www.w3.org/1999/xlink" x="0px" y="0px"
	 viewBox="0 0 92 75" style="enable-background:new 0 0 92 75;" xml:space="preserve">
<style type="text/css">
	.st0{fill:#FFFFFF;}
</style>
<path class="st0" d="M90.66,33.51c-0.13-0.49-0.52-0.87-1.01-0.97l-0.61-0.13v-8.46l0.99-0.84c0.39-0.33,0.55-0.86,0.42-1.35
	s-0.54-0.87-1.04-0.96l-5.54-1.01l0-7.12l0-0.15l1.02-0.87c0.39-0.33,0.55-0.86,0.42-1.35c-0.13-0.5-0.54-0.87-1.04-0.96L39.44,1.25
	c-0.35-0.06-0.71,0.02-0.99,0.22L3.72,25.69c-0.66,0.36-3.06,2.01-3.01,6.6c0.05,4.98,3,7.24,3.12,7.33
	c0.02,0.01,0.04,0.02,0.05,0.03c0.03,0.02,0.06,0.04,0.09,0.06c0.03,0.02,0.07,0.03,0.1,0.05c0.03,0.01,0.06,0.03,0.1,0.04
	c0.04,0.01,0.08,0.02,0.11,0.03c0.02,0.01,0.04,0.02,0.06,0.02l2.05,0.43c-0.33,0.9-0.56,2.04-0.54,3.46
	c0.02,2.47,0.76,4.26,1.51,5.46l-1.59,1.11c-0.66,0.37-3.06,2.02-3.01,6.6c0.05,4.98,2.99,7.24,3.12,7.33
	c0.11,0.08,0.33,0.19,0.52,0.24l47.01,9.86c0.01,0,0.01,0,0.01,0l1.68,0.35c0.09,0.02,0.18,0.03,0.27,0.03
	c0.31,0,0.62-0.11,0.86-0.32l30.9-26.39c0.39-0.33,0.55-0.85,0.42-1.34c-0.13-0.49-0.52-0.87-1.01-0.97l-0.55-0.12v-7.13l4.23-3.61
	C90.62,34.52,90.79,34,90.66,33.51z M53.12,38.37c0.31,0,0.62-0.11,0.86-0.32l27.24-23.27v8.43L52.87,47.31v-8.97
	C52.96,38.35,53.04,38.37,53.12,38.37z M5.77,28.46l44.45,9.33v8.97L5.77,37.45C5.77,37.45,5.77,28.46,5.77,28.46z M7.83,62.07
	v-8.98l44.45,9.33v8.98L7.83,62.07z M10.94,48.91v-7.67l40.42,8.48c0.01,0,0.01,0,0.01,0l1.68,0.35c0.09,0.02,0.18,0.03,0.27,0.03
	c0.31,0,0.62-0.11,0.86-0.32l0.74-0.63l0.44,0.09v8.98L10.94,48.91z M83.35,47.77L54.95,71.95l-0.01-8.99
	c0.08,0.02,0.16,0.03,0.24,0.03c0.31,0,0.62-0.11,0.86-0.32l1.5-1.28l0.66,0.14c0.09,0.02,0.18,0.03,0.27,0.03
	c0.31,0,0.62-0.11,0.86-0.32l24.02-20.53V47.77z M86.44,34.61l-28.4,24.18l-0.01-8.98c0.08,0.01,0.16,0.03,0.24,0.03
	c0.31,0,0.62-0.11,0.86-0.32l27.31-23.33L86.44,34.61z"/>
</svg>
