<?xml version="1.0" encoding="utf-8"?>
<!-- Generator: Adobe Illustrator 24.0.1, SVG Export Plug-In . SVG Version: 6.00 Build 0)  -->
<svg version="1.1" id="Layer_1" xmlns="http://www.w3.org/2000/svg" xmlns:xlink="http://www.w3.org/1999/xlink" x="0px" y="0px"
	 viewBox="0 0 100 90" style="enable-background:new 0 0 100 90;" xml:space="preserve">
<style type="text/css">
	.st0{fill:#FFFFFF;}
</style>
<g>
	<path class="st0" d="M45.96,49.61c-6.09-1.6-10.5-6.88-11-13.15c-2.35-0.78-4.81-1.18-7.28-1.17l0,0c-12.7,0-23,10.3-23,23v4.17
		c6.24,4.53,13.68,7.11,21.38,7.42C27.53,59.48,35.6,51.26,45.96,49.61z"/>
	<path class="st0" d="M41.17,18.41c0.02-7.47-6.02-13.55-13.49-13.57c-7.47-0.02-13.55,6.02-13.57,13.49
		C14.09,25.8,20.13,31.88,27.6,31.9c3.25,0.01,6.39-1.15,8.85-3.26c0.84-1.66,1.98-3.15,3.37-4.39
		C40.71,22.43,41.17,20.43,41.17,18.41z"/>
	<path class="st0" d="M71.68,35.29L71.68,35.29c-2.46,0-4.9,0.39-7.23,1.17c-0.51,6.27-4.92,11.54-11,13.15
		c10.34,1.68,18.38,9.9,19.84,20.27c7.71-0.31,15.15-2.9,21.39-7.44v-4.15C94.68,45.59,84.39,35.29,71.68,35.29z"/>
	<path class="st0" d="M71.68,31.9c7.47,0.02,13.53-6.02,13.55-13.49c0.02-7.47-6.02-13.53-13.49-13.55
		c-7.47-0.02-13.53,6.02-13.55,13.49c0,2.04,0.45,4.06,1.34,5.9c1.39,1.24,2.54,2.73,3.38,4.4C65.35,30.75,68.46,31.9,71.68,31.9z"
		/>
	<path class="st0" d="M49.75,51.32H49.6c-12.03,0.07-21.75,9.82-21.77,21.85v4c13.03,9.45,30.67,9.45,43.7,0v-4
		C71.51,61.14,61.78,51.38,49.75,51.32z"/>
	<path class="st0" d="M48.25,48.02c0.47,0.05,0.95,0.08,1.42,0.08c0.48,0,0.96-0.03,1.43-0.09c5.73-0.64,10.32-5.04,11.22-10.73
		c0.11-0.66,0.16-1.33,0.17-2c-0.2-7.08-6.1-12.65-13.17-12.46c-6.8,0.19-12.27,5.66-12.46,12.46c0,0.67,0.06,1.34,0.17,2
		C37.93,42.98,42.52,47.37,48.25,48.02z"/>
</g>
</svg>
